<svg version="1.1" id="Capa_1" xmlns="http://www.w3.org/2000/svg" xmlns:xlink="http://www.w3.org/1999/xlink" x="0px" y="0px" viewBox="0 0 480 480" style="width: 1em; height: 1em; vertical-align: middle; fill: currentcolor; overflow: hidden; font-size: 200px;" xml:space="preserve" width="200" height="200">
<g>
	<g>
		<path d="M472,0H8C3.582,0,0,3.582,0,8v360c0,4.418,3.582,8,8,8h256v64c-0.002,4.418,3.578,8.002,7.996,8.004
			c2.432,0.001,4.733-1.104,6.252-3.004L304,412.8l25.752,32.192c2.759,3.451,7.794,4.011,11.244,1.252
			c1.897-1.517,3.002-3.814,3.004-6.244v-48h40v80c0,4.418,3.582,8,8,8h48c4.418,0,8-3.582,8-8v-96h24c4.418,0,8-3.582,8-8V8
			C480,3.582,476.418,0,472,0z M232,360H16V16h216V360z M264,360h-16V16h16V360z M328,417.192L310.248,395
			c-2.994-3.451-8.218-3.821-11.669-0.827c-0.295,0.256-0.571,0.532-0.827,0.827L280,417.192V16h48V417.192z M432,464h-32v-32h32
			V464z M432,416h-32V233.888l3.112-6.224c8.144,3.926,17.632,3.926,25.776,0l3.112,6.224V416z M410.24,213.416l5.76-11.528
			l5.76,11.528C418.082,214.992,413.918,214.992,410.24,213.416z M464,360h-16V232c0.014-1.238-0.26-2.462-0.8-3.576l-24-48
			c-2.358-3.954-7.474-5.249-11.429-2.891c-1.189,0.709-2.182,1.702-2.891,2.891l-24,48c-0.567,1.107-0.869,2.332-0.88,3.576v144
			h-40V176h40c4.418,0,8-3.582,8-8s-3.582-8-8-8h-40v-16h96c4.418,0,8-3.582,8-8s-3.582-8-8-8h-96v-16h96c4.418,0,8-3.582,8-8
			s-3.582-8-8-8h-96V80h96c4.418,0,8-3.582,8-8s-3.582-8-8-8h-96V16h120V360z"></path>
	</g>
</g>
<g>
	<g>
		<path d="M80,32H40c-4.418,0-8,3.582-8,8s3.582,8,8,8h40c4.418,0,8-3.582,8-8S84.418,32,80,32z"></path>
	</g>
</g>
<g>
	<g>
		<path d="M208,64H40c-4.418,0-8,3.582-8,8s3.582,8,8,8h168c4.418,0,8-3.582,8-8S212.418,64,208,64z"></path>
	</g>
</g>
<g>
	<g>
		<path d="M208,96H40c-4.418,0-8,3.582-8,8s3.582,8,8,8h168c4.418,0,8-3.582,8-8S212.418,96,208,96z"></path>
	</g>
</g>
<g>
	<g>
		<path d="M208,128H40c-4.418,0-8,3.582-8,8s3.582,8,8,8h168c4.418,0,8-3.582,8-8S212.418,128,208,128z"></path>
	</g>
</g>
<g>
	<g>
		<path d="M208,160H40c-4.418,0-8,3.582-8,8s3.582,8,8,8h168c4.418,0,8-3.582,8-8S212.418,160,208,160z"></path>
	</g>
</g>
<g>
	<g>
		<path d="M208,192H40c-4.418,0-8,3.582-8,8s3.582,8,8,8h168c4.418,0,8-3.582,8-8S212.418,192,208,192z"></path>
	</g>
</g>
<g>
	<g>
		<path d="M208,224H40c-4.418,0-8,3.582-8,8s3.582,8,8,8h168c4.418,0,8-3.582,8-8S212.418,224,208,224z"></path>
	</g>
</g>
<g>
	<g>
		<path d="M208,256H40c-4.418,0-8,3.582-8,8s3.582,8,8,8h168c4.418,0,8-3.582,8-8S212.418,256,208,256z"></path>
	</g>
</g>
<g>
	<g>
		<path d="M168,288H40c-4.418,0-8,3.582-8,8s3.582,8,8,8h128c4.418,0,8-3.582,8-8S172.418,288,168,288z"></path>
	</g>
</g>
<g>
</g>
<g>
</g>
<g>
</g>
<g>
</g>
<g>
</g>
<g>
</g>
<g>
</g>
<g>
</g>
<g>
</g>
<g>
</g>
<g>
</g>
<g>
</g>
<g>
</g>
<g>
</g>
<g>
</g>
</svg>