<svg version="1.1" id="Capa_1" xmlns="http://www.w3.org/2000/svg" xmlns:xlink="http://www.w3.org/1999/xlink" x="0px" y="0px" viewBox="0 0 512.001 512.001" style="width: 1em; height: 1em; vertical-align: middle; fill: currentcolor; overflow: hidden; font-size: 200px;" xml:space="preserve" width="200" height="200">
<g>
	<g>
		<path d="M491.514,148.498c27.293-27.293,27.293-71.701,0-98.994L442.017,0.007l-43.382,43.382
			C356.067,14.713,306.619-0.279,254.762,0.004C114.059,0.68-0.22,115.717,0.017,256.44c0.115,68.288,26.794,132.471,75.125,180.724
			c48.335,48.26,112.571,74.837,180.875,74.837c13.478,0,27.011-1.059,40.224-3.146c20.168-3.188,37.24-15.365,46.838-33.411
			c9.753-18.337,10.29-39.698,1.471-58.605c-9.644-20.677-14.533-42.827-14.533-65.837c0-29.521,8.28-58.253,23.945-83.089
			c11.303-17.92,26.072-33.28,43.344-45.235l8.777,254.863l0.008,0.19c0.906,19.217,16.687,34.27,35.926,34.27
			c19.239,0,35.02-15.054,35.926-34.27l8.904-258.531c3.239-4.215,5.17-9.484,5.17-15.199v-40c0-4.636-1.273-8.979-3.482-12.705
			C489.549,150.392,490.547,149.466,491.514,148.498z M392.017,164.001v26.484c-25.685,15.062-47.458,36.102-63.429,61.423
			c-18.691,29.634-28.571,63.899-28.571,99.093c0,27.424,5.835,53.841,17.345,78.517c4.8,10.291,4.519,21.896-0.769,31.839
			c-5.133,9.65-14.258,16.162-25.035,17.865c-11.669,1.845-23.627,2.779-35.541,2.779c-60.299,0-117.007-23.463-159.679-66.066
			c-42.666-42.599-66.219-99.26-66.321-159.545C29.808,132.156,130.693,30.601,254.906,30.004
			c44.89-0.212,87.796,12.497,124.892,36.882c-5.077,9.81-7.781,20.752-7.781,32.115c0,18.698,7.282,36.276,20.503,49.497
			c0.968,0.968,1.966,1.894,2.979,2.798C393.29,155.022,392.017,159.365,392.017,164.001z M447.972,476.381
			c-0.182,3.156-2.786,5.62-5.956,5.62s-5.773-2.464-5.956-5.62l-8.519-247.38h28.949L447.972,476.381z M462.017,199.001h-40v-30h40
			V199.001z M470.3,127.285c-7.555,7.556-17.6,11.716-28.284,11.716c-10.684,0-20.729-4.16-28.284-11.716h-0.001
			c-15.596-15.596-15.596-40.973,0-56.568l28.285-28.284l28.285,28.284c7.555,7.555,11.715,17.6,11.715,28.284
			C482.016,109.685,477.856,119.73,470.3,127.285z"></path>
	</g>
</g>
<g>
	<g>
		<path d="M211.017,346.001c-24.813,0-45,20.187-45,45s20.187,45,45,45c24.813,0,45-20.187,45-45S235.83,346.001,211.017,346.001z
			 M211.017,406.001c-8.271,0-15-6.729-15-15s6.729-15,15-15s15,6.729,15,15S219.288,406.001,211.017,406.001z"></path>
	</g>
</g>
<g>
	<g>
		<path d="M124.017,263.001c-24.813,0-45,20.187-45,45s20.187,45,45,45c24.813,0,45-20.187,45-45S148.83,263.001,124.017,263.001z
			 M124.017,323.001c-8.271,0-15-6.729-15-15s6.729-15,15-15s15,6.729,15,15S132.288,323.001,124.017,323.001z"></path>
	</g>
</g>
<g>
	<g>
		<path d="M145.017,143.001c-24.813,0-45,20.187-45,45c0,24.813,20.187,45,45,45c24.813,0,45-20.187,45-45
			C190.017,163.188,169.83,143.001,145.017,143.001z M145.017,203.001c-8.271,0-15-6.729-15-15s6.729-15,15-15s15,6.729,15,15
			S153.288,203.001,145.017,203.001z"></path>
	</g>
</g>
<g>
	<g>
		<path d="M238.017,74.001c-24.813,0-45,20.187-45,45s20.187,45,45,45c24.813,0,45-20.187,45-45
			C283.017,94.188,262.83,74.001,238.017,74.001z M238.017,134.001c-8.271,0-15-6.729-15-15s6.729-15,15-15s15,6.729,15,15
			S246.288,134.001,238.017,134.001z"></path>
	</g>
</g>
<g>
</g>
<g>
</g>
<g>
</g>
<g>
</g>
<g>
</g>
<g>
</g>
<g>
</g>
<g>
</g>
<g>
</g>
<g>
</g>
<g>
</g>
<g>
</g>
<g>
</g>
<g>
</g>
<g>
</g>
</svg>